<?xml version="1.0" encoding="utf-8"?>
<!-- Generator: Adobe Illustrator 26.0.1, SVG Export Plug-In . SVG Version: 6.00 Build 0)  -->
<svg version="1.1" id="Capa_1" xmlns="http://www.w3.org/2000/svg" xmlns:xlink="http://www.w3.org/1999/xlink" x="0px" y="0px"
	 viewBox="0 0 20.5 20.5" style="enable-background:new 0 0 20.5 20.5;" xml:space="preserve">
<style type="text/css">
	.st0{fill:#06396E;}
</style>
<g id="noun-search-1594157" transform="translate(-397.601 -167.516)">
	<path id="Trazado_112" class="st0" d="M417.8,186.2c0.4,0.4,0.5,1.1,0.1,1.5s-1.1,0.5-1.5,0.1c0,0,0,0-0.1-0.1l-5.3-5.3
		c-0.2-0.2-0.6-0.2-0.8-0.1c-0.1,0.1-0.3,0.2-0.5,0.3c-3.9,2.2-8.8,0.9-11-3s-0.9-8.8,3-11s8.8-0.9,11,3c1.4,2.5,1.4,5.5,0,8
		c-0.1,0.1-0.2,0.3-0.3,0.4c-0.2,0.3-0.1,0.6,0.1,0.8L417.8,186.2z M405.7,181.5c3.3,0,5.9-2.7,5.9-5.9s-2.7-5.9-5.9-5.9
		s-5.9,2.7-5.9,5.9S402.4,181.5,405.7,181.5L405.7,181.5z"/>
</g>
</svg>
