<?xml version="1.0" encoding="utf-8"?>
<!-- Generator: Adobe Illustrator 26.0.1, SVG Export Plug-In . SVG Version: 6.00 Build 0)  -->
<svg version="1.1" id="Capa_1" xmlns="http://www.w3.org/2000/svg" xmlns:xlink="http://www.w3.org/1999/xlink" x="0px" y="0px"
	 viewBox="0 0 23.7 23.5" style="enable-background:new 0 0 23.7 23.5;" xml:space="preserve">
<style type="text/css">
	.st0{fill:#06396E;}
</style>
<path id="person" class="st0" d="M11.7,11.8c3.1,0,5.7-2.5,5.7-5.7s-2.5-5.7-5.7-5.7S6,3,6,6.1l0,0C6,9.3,8.6,11.8,11.7,11.8z
	 M15.5,6.1c0,2.1-1.7,3.8-3.8,3.8S7.9,8.2,7.9,6.1s1.7-3.8,3.8-3.8C13.8,2.4,15.5,4.1,15.5,6.1L15.5,6.1L15.5,6.1z M23,21.2
	c0,1-0.8,1.9-1.8,1.9h-0.1H2.3c-1,0-1.9-0.8-1.9-1.8v-0.1c0-1.9,1.9-7.5,11.3-7.5S23,19.3,23,21.2L23,21.2z M21.1,21.2
	c-0.1-1.2-0.7-2.3-1.6-3.1c-1.2-1.2-3.5-2.5-7.9-2.5S5,16.9,3.7,18.1C3,18.9,2.4,20,2.3,21.2H21.1z"/>
</svg>
